<mxfile host="app.diagrams.net" agent="Mozilla/5.0 (Macintosh; Intel Mac OS X 10_15_7) AppleWebKit/537.36 (KHTML, like Gecko) Chrome/130.0.0.0 Safari/537.36" version="25.0.3">
  <diagram name="Page-1" id="srv6Nt3DbwOaIAXr_QOI">
    <mxGraphModel dx="2733" dy="1269" grid="1" gridSize="10" guides="1" tooltips="1" connect="1" arrows="1" fold="1" page="1" pageScale="1" pageWidth="1100" pageHeight="850" math="0" shadow="0">
      <root>
        <mxCell id="0" />
        <mxCell id="1" parent="0" />
        <mxCell id="-7WyKjTnlyV4lwFMVizJ-1" value="&lt;font style=&quot;font-size: 36px;&quot;&gt;Marketing&lt;/font&gt;" style="text;strokeColor=none;align=center;fillColor=none;html=1;verticalAlign=middle;whiteSpace=wrap;rounded=0;" vertex="1" parent="1">
          <mxGeometry x="-630" y="190" width="60" height="30" as="geometry" />
        </mxCell>
        <mxCell id="-7WyKjTnlyV4lwFMVizJ-2" value="&lt;font style=&quot;font-size: 24px;&quot;&gt;Sign Up&lt;/font&gt;" style="text;strokeColor=none;align=center;fillColor=none;html=1;verticalAlign=middle;whiteSpace=wrap;rounded=0;" vertex="1" parent="1">
          <mxGeometry x="280" y="310" width="100" height="30" as="geometry" />
        </mxCell>
        <mxCell id="-7WyKjTnlyV4lwFMVizJ-3" value="&lt;font style=&quot;font-size: 18px;&quot;&gt;Sign Up&lt;/font&gt;" style="text;strokeColor=none;align=center;fillColor=none;html=1;verticalAlign=middle;whiteSpace=wrap;rounded=0;" vertex="1" parent="1">
          <mxGeometry x="490" y="310" width="100" height="30" as="geometry" />
        </mxCell>
        <mxCell id="-7WyKjTnlyV4lwFMVizJ-5" value="&lt;font style=&quot;font-size: 36px;&quot;&gt;Acquisition&lt;/font&gt;" style="text;strokeColor=none;align=center;fillColor=none;html=1;verticalAlign=middle;whiteSpace=wrap;rounded=0;" vertex="1" parent="1">
          <mxGeometry x="-10" y="190" width="60" height="30" as="geometry" />
        </mxCell>
        <mxCell id="-7WyKjTnlyV4lwFMVizJ-6" value="&lt;font style=&quot;font-size: 36px;&quot;&gt;Follow Up&lt;/font&gt;" style="text;strokeColor=none;align=center;fillColor=none;html=1;verticalAlign=middle;whiteSpace=wrap;rounded=0;" vertex="1" parent="1">
          <mxGeometry x="500" y="190" width="230" height="30" as="geometry" />
        </mxCell>
      </root>
    </mxGraphModel>
  </diagram>
</mxfile>
